<mxfile host="app.diagrams.net" modified="2023-08-30T11:12:04.307Z" agent="Mozilla/5.0 (Windows NT 10.0; Win64; x64) AppleWebKit/537.36 (KHTML, like Gecko) Chrome/116.0.0.0 Safari/537.36" etag="huIDyQfCqHN1dyWSC_tw" version="21.7.0" type="github">
  <diagram name="Page-1" id="gbp8BnoYTopGR79soo97">
    <mxGraphModel dx="2059" dy="702" grid="0" gridSize="10" guides="1" tooltips="1" connect="1" arrows="1" fold="1" page="0" pageScale="1" pageWidth="850" pageHeight="1100" math="0" shadow="0">
      <root>
        <mxCell id="0" />
        <mxCell id="1" parent="0" />
        <mxCell id="2mU9TKdwustbTcXItgBq-1" style="edgeStyle=orthogonalEdgeStyle;rounded=0;orthogonalLoop=1;jettySize=auto;html=1;entryX=0;entryY=0.5;entryDx=0;entryDy=0;" edge="1" parent="1" source="2mU9TKdwustbTcXItgBq-2" target="2mU9TKdwustbTcXItgBq-5">
          <mxGeometry relative="1" as="geometry" />
        </mxCell>
        <mxCell id="2mU9TKdwustbTcXItgBq-2" value="&lt;p style=&quot;line-height: 142%;&quot;&gt;&lt;b&gt;&lt;font data-font-src=&quot;https://fonts.googleapis.com/css?family=Roboto&quot; face=&quot;Roboto&quot; style=&quot;font-size: 15px;&quot;&gt;Object Oriented Class&lt;/font&gt;&lt;/b&gt;&lt;/p&gt;" style="rounded=1;whiteSpace=wrap;html=1;fillColor=#dae8fc;strokeColor=none;shadow=1;treeFolding=1;movable=1;resizable=1;rotatable=1;deletable=1;editable=1;locked=0;connectable=1;" vertex="1" parent="1">
          <mxGeometry x="-215" y="135" width="129" height="94" as="geometry" />
        </mxCell>
        <mxCell id="2mU9TKdwustbTcXItgBq-3" style="edgeStyle=orthogonalEdgeStyle;rounded=0;orthogonalLoop=1;jettySize=auto;html=1;" edge="1" parent="1" source="2mU9TKdwustbTcXItgBq-4" target="2mU9TKdwustbTcXItgBq-2">
          <mxGeometry relative="1" as="geometry" />
        </mxCell>
        <UserObject label="&lt;p style=&quot;line-height: 260%;&quot;&gt;&lt;b&gt;&lt;font data-font-src=&quot;https://fonts.googleapis.com/css?family=Roboto&quot; face=&quot;Roboto&quot; style=&quot;font-size: 18px;&quot;&gt;DATA STRUCTURE AND ALGORITHM&lt;/font&gt;&lt;/b&gt;&lt;/p&gt;" id="2mU9TKdwustbTcXItgBq-4">
          <mxCell style="rounded=1;whiteSpace=wrap;html=1;fillColor=#d5e8d4;strokeColor=none;shadow=1;treeFolding=1;editable=1;movable=1;resizable=1;rotatable=1;deletable=1;locked=0;connectable=1;" vertex="1" parent="1">
            <mxGeometry x="-438" y="135" width="197" height="94" as="geometry" />
          </mxCell>
        </UserObject>
        <mxCell id="2mU9TKdwustbTcXItgBq-5" value="Definition" style="swimlane;whiteSpace=wrap;html=1;fillColor=#b1ddf0;strokeColor=default;swimlaneFillColor=#FFFFFF;gradientColor=none;" vertex="1" parent="1">
          <mxGeometry x="1" y="46.5" width="200" height="271" as="geometry" />
        </mxCell>
        <mxCell id="2mU9TKdwustbTcXItgBq-6" value="Class =&amp;gt; Blue print&lt;br&gt;Example:&lt;br&gt;&lt;br&gt;class Car {&lt;br&gt;&lt;span style=&quot;white-space: pre;&quot;&gt;&#x9;&lt;/span&gt;String color;&lt;br&gt;&lt;span style=&quot;white-space: pre;&quot;&gt;&#x9;&lt;/span&gt;int noOfSeat&lt;br&gt;}&lt;br&gt;&lt;br&gt;Object =&amp;gt; instance of a class&lt;br&gt;Ex: Car alto = new Car();&lt;br&gt;&lt;br&gt;Class made up of:&lt;br&gt;&lt;span style=&quot;white-space: pre;&quot;&gt;&#x9;&lt;/span&gt;Properties / Attributes&lt;br&gt;&lt;span style=&quot;white-space: pre;&quot;&gt;&#x9;&lt;/span&gt;Functionalities / Methods" style="text;html=1;align=left;verticalAlign=middle;resizable=0;points=[];autosize=1;strokeColor=none;fillColor=none;" vertex="1" parent="2mU9TKdwustbTcXItgBq-5">
          <mxGeometry x="8" y="38" width="177" height="214" as="geometry" />
        </mxCell>
      </root>
    </mxGraphModel>
  </diagram>
</mxfile>
